<svg xmlns="http://www.w3.org/2000/svg" version="1.1" xmlns:xlink="http://www.w3.org/1999/xlink" xmlns:svgjs="http://svgjs.dev/svgjs" width="128" height="128" viewBox="0 0 128 128"><g transform="matrix(0.5628415300546448,0,0,0.5628415300546448,27.91695386859911,12.333870967741937)"><svg viewBox="0 0 108 155" data-background-color="#1ebbd7" preserveAspectRatio="xMidYMid meet" height="183" width="128" xmlns="http://www.w3.org/2000/svg" xmlns:xlink="http://www.w3.org/1999/xlink"><g id="tight-bounds" transform="matrix(1,0,0,1,0.09172661870503873,0.25)"><svg viewBox="0 0 107.81654676258992 154.5" height="154.5" width="107.81654676258992"><g><svg viewBox="0 0 107.81654676258992 154.5" height="154.5" width="107.81654676258992"><g><svg viewBox="0 0 107.81654676258992 154.5" height="154.5" width="107.81654676258992"><g id="textblocktransform"><svg viewBox="0 0 107.81654676258992 154.5" height="154.5" width="107.81654676258992" id="textblock"><g><svg viewBox="0 0 107.81654676258992 154.5" height="154.5" width="107.81654676258992"><g transform="matrix(1,0,0,1,0,0)"><svg width="107.81654676258992" viewBox="1.95 -34.75 24.25 34.75" height="154.5" data-palette-color="#010c80"><path d="M1.95-34.75L26.2-34.75 26.2-30.1 16.95-30.1 16.95 0 11.25 0 11.25-30.1 1.95-30.1 1.95-34.75Z" opacity="1" transform="matrix(1,0,0,1,0,0)" fill="#010c80" class="wordmark-text-0" data-fill-palette-color="primary" id="text-0"></path></svg></g></svg></g></svg></g></svg></g><g></g></svg></g><defs></defs></svg><rect width="107.81654676258992" height="154.5" fill="none" stroke="none" visibility="hidden"></rect></g></svg></g></svg>